<?xml version="1.0" encoding="UTF-8"?>
<svg version="1.1" viewBox="0 0 1364 2048" width="790" height="1186" xmlns="http://www.w3.org/2000/svg">
<path transform="translate(610,122)" d="m0 0h22l14 4 12 6 12 11 7 9 6 13 3 12v21l-4 16-6 11-9 10-7 7-7 5 4 18 9 39 5 23v3h16l16 2 9 4 8 6 2 2 25 1 30 3 28 5 32 8 25 9 25 11 23 12 25 16 18 14 11 9 26 24 7 8 12 14 14 19 15 25 9 17 15 38 6 18 7 28 4 30 2 26v30l-3 34-5 27-6 21-8 22-8 17-14 23-12 16-9 10-7 8-16 16-14 11-11 8-18 11-23 12-23 10-6 2 5 4 11 7 9 9 9 13 3 4 31 12 25 8 17 4 16 1 16-3 16-8 10-8 11-10 7-8 9-12 12-20 4-8-1-5-10-19-5-15-2-9v-21l3-11 6-11 6-8 8-7 8-4 8-2h5l2-6 9-15 11-12 7-7 11-7 12-5 15-2 12 1 11 4 11 7 10 9 20 11 13 11 9 10 10 16 9 16 7 12 4 15v28l-4 16-6 17-8 14-10 14-11 12-9 8-14 9-9 5-4 5-7 11-13 17-9 11-9 10-7 8-19 19-11 9-13 11-21 14-14 8-21 9-18 6-19 4-9 1h-26l-18-2-22-5-30-10-24-11-20-10v60l-3 41-6 36-5 19-9 21-8 14-9 12-9 11-8 8-11 9-12 9-15 9-23 11-7 1 4 4 10 8 14 12 14 13 8 7 10 9 16 15 48 48 7 8 9 9 7 8 5 6 2 1 1-5 10-21 11-19 10-14 9-11 9-10 15-15 16-12 17-9 18-6 11-2h23l18 4 12 5 12 7 11 9 11 11 10 15 6 14 3 12 2 21-1 25-3 20-6 23-10 30-13 29-13 25-13 22-12 19-14 19-12 14-12 13-8 7-14 11-14 8-15 6-13 3-15 1-17-2-10-3-18-8-11-7-13-10-15-14-10-11-12-16-9-15-6-11-10-13-10-12-8-10-13-15-9-11-10-11-7-8-9-10-11-12-7-8-15-16-7-7-7-8-25-25-8-7-8-8-11-9-11-10-17-13-15-11-12-8-4 1-8 7-11 9-17 12-19 11-23 11-15 5-16 4-16 2h-21l-22-3-18-5-20-8-27-14-3-1-2 5-11 14-10 10-13 10-15 10-14 7-18 6-19 3h-10l-14-2-15-5-12-7-12-11-8-13-5-12-3-14v-26l3-19 6-22 11-28 10-20 11-18 12-16 9-11 11-12 11-11 14-11 13-8 15-7 10-3 8-1h19l14 4 12 6 11 8 15 15 10 14 14 29 9 8 13 8 12 5 13 3 10 1h11l7-2 12-10 6-4-1-3-11-9-13-12-9-10-9-14-8-16-5-15-3-16-1-14v-47l2-28 4-39 3-25-14-8-11-9-8-11-16-8-28-13-26-10-15-5-21-4h-10l-12 3-12 6-10 9-10 11-11 18-9 17 3 5 10 13 8 14 7 16 3 11 1 6v20l-4 14-6 11-9 9-12 6-7 2-5 13-7 12-11 11-11 7-13 4-6 1h-13l-17-5-17-8-19-3-12-6-12-11-14-9-11-9-7-8-8-14-5-16-2-13v-14l3-17 5-16 10-21 10-14 14-15 13-11 19-10 10-3 10-23 15-26 12-17 11-14 9-10 14-15 13-11 15-10 19-10 17-6 13-3 23-2h10l22 2 26 5 30 8 36 12 53 19 6-1-5-4-21-12-18-12-18-14-13-11-22-22-11-14-21-2-18-6-13-8-12-11-8-8-9-14-8-14-6-15-6-22-3-18-1-23 1-17 4-20 5-15 8-14 9-10 9-8 13-7 1-2 3-25 7-28 10-27 8-17 12-21 10-14 9-12 13-16 6-7 15-15 11-9 10-9 12-9 14-10 18-11 24-13 27-11 24-8 4-8 5-5 10-7 12-5 18-4h4l-5-25-11-48-1-7-7 1-18-1-15-5-10-6-10-9-7-8-8-16-3-12v-17l4-16 7-14 11-12 10-8 14-6z" fill="#21231F"/>
<path transform="translate(727,362)" d="m0 0h14l36 4 26 5 18 5 20 6 21 8 20 9 21 11 27 18 16 13 11 9 30 30 11 14 13 18 12 20 11 22 4 9 6 16 4 10 5 17 6 26 2 12 2 18v63l-3 22-3 15-8 26-6 16-11 23-10 16-9 12-9 11-11 12-10 10-11 9-17 12-19 11-23 11-20 8-22 7-30 7-21 4-11 2h-15l-3-2-43-3-35-5-32-8-29-9-25-10-24-12-18-11-16-12-14-12-21-21-18-22-11-17-13-24-6-10-2 12-2 1v-8l1-6 1-18v-22l-3-21-5-19-6-15-8-15-10-13-4-5 1-34 4-28 6-28 12-36 11-22 12-20 11-15 9-11 11-12 13-13 11-9 18-13 25-14 15-7-8-4-12 2-13 5-23 10-17 9-20 12-10 7-5 4-5 3-7 6-11 9-8 8-8 7-7 8-9 11-11 14-8 12-9 14-8 15-10 24-6 19-7 30h-1v-8l4-19 8-25 5-11 5-12 12-22 10-14 12-16 11-13 9-10 15-15 11-9 13-10 24-16 22-12 16-8 17-7 11-4 10-1 8 3 15 3h28l24-2 21-5 16-6 10-7z" fill="#A8A6A2"/>
<path transform="translate(867,990)" d="m0 0 5 5 8 17 5 15 4 16 3 28 2 13 1 11 1 23v65l-2 22-3 29-2 9-7 6-16 8-11 5-13 4-27 7-13 3-28 4-20 2h-66l-27-2-26-4-20-4-24-7-18-6-2-3 1-38 3-41 7-59 9-72 2-27 1-7 25 8 33 8 35 5 26 2h29l31-3 23-4 22-6 22-8 25-11 4-2h3l-5-9z" fill="#A8A6A2"/>
<path transform="translate(570,1768)" d="m0 0h113l49 2 49 3 54 5 36 4 33 5 34 6 36 9 18 6 14 7 11 8 5 8-1 7-4 6-9 7-13 6-22 7-30 7-35 6-30 4-50 5-23 2-63 3-36 1h-70l-45-2-55-3-53-4-47-5-42-6-43-8-28-7-22-8-16-8-8-7-3-9 3-8 7-6 15-8 18-6 32-8 26-5 27-4 34-4 48-4 54-3z" fill="#A8A6A2"/>
<path transform="translate(1115,1450)" d="m0 0h16l14 7 7 9 5 12 2 13v26l-4 25-5 19-8 24-10 23-9 19-13 23-8 14-12 18-14 19-11 13-11 12-13 11-18 11-13 5-6 1h-12l-7-3-5-6-4-10-1-6v-18l3-25 6-29 12-38 13-34 13-30 12-24 14-24 7-11 9-11 9-10 11-10 13-8 11-5z" fill="#5F5E58"/>
<path transform="translate(367,1281)" d="m0 0 13 1 11 4 11 7 13 12 10 14 6 11-20 5-16 8-10 8-9 10-8 14-5 16-2 11v13l3 17 5 12 7 11 4 5 5 4-2 5-11 13-7 8-14 11-18 11-13 6-18 5-14 1-19-4-14-7-9-8-7-12-4-20v-15l2-17 6-24 11-28 10-19 18-27 8-10 12-14 10-10 11-9 14-9 12-6 10-3z" fill="#5F5E58"/>
<path transform="translate(171,1068)" d="m0 0 3 1 6 11 11 13 12 9 12 7 22 7 14 2h13l8-4 4 1 11 16 6 10 5 14 1 4v23l-5 12-7 8-6 3-8-1-7-5 1-4 6-7h2l2-4 1-9-1-4-8 2-12 9-9 9-9 13-5 10v7l2 4 5 1 4-5 7-11 4 2 4 5v7l-4 10-7 9-10 7-11 4h-18l-10-4-9-7-6-7-4-10-1-9v-3l-4-4-5 1-1 4v24l-9-2-11-7-6-9-3-9-2-16-5-2-3 3-3 16-7-6-6-8-4-10-3-14v-20l3-15 4-12 9-19 10-13 9-10 14-11z" fill="#76756E"/>
<path transform="translate(377,641)" d="m0 0h22l11 4 10 6 10 8 9 9 9 13 8 15 7 19 3 14 2 20v22l-3 18-4 12-7 14-8 10-9 8-11 5-5 1h-16l-12-3-14-7-10-8-9-10-9-14-9-21-6-20-3-20-1-11v-19l3-17 4-12 9-16 11-11 10-6z" fill="#76756E"/>
<path transform="translate(1071,1419)" d="m0 0h22l16 4 16 8 2 3-19 3-16 6-10 6-14 11-8 8-6 5-9 11-16 24-10 18-8 15-5 12-5 10-5 13-5 11-4 12-4 10-6 17-9 35-5 22-2 11-1 20 2 23 2 12-9-3-14-9-11-9-18-18-13-17-11-19-3-9v-18l2-13 6-20 8-16 11-16 9-10 6-5 2 1-2 12v11l3 11h4l3-9 7-27 4-12 4-9 4-11 5-10 4-10 5-9 10-16 10-14 1-2h2l2-5 16-17 13-11h2v-2l8-5 11-6 14-5z" fill="#76756E"/>
<path transform="translate(548,957)" d="m0 0 10 1 25 6 24 7 24 5 7 2 8 11 12 9 16 9 13 5 17 5 18 3h40l21-3 20-6 14-8 8-8 5-10v-14l14-2h7l10 11 6 8 3 7 2 6-32 14-25 9-24 6-25 4-24 2h-29l-26-2-35-5-40-10-17-6-1 6-3 36-13 103-4 43-1 17-1 38-4 1-21-8-20-11-14-10-6-7v-21l2-30 4-39 3-24 1-3 20-2 12-4 9-6 8-8 8-13 5-16 2-12v-21l-3-16-4-12-6-11-9-11-9-9-3-2z" fill="#76756E"/>
<path transform="translate(896,759)" d="m0 0 8 1 7 5 4 9v13l-4 16-6 15-8 15-11 15-12 13-14 11-14 8-16 5-8 2h-25l-17-4-16-7-11-7-13-11-10-11-11-18-6-15-4-14v-17l3-6 7-6 6-2h12l5 1 31 2h51l19-2 32-6z" fill="#1F211D"/>
<path transform="translate(1132,847)" d="m0 0h15l8 3 13 9 14 12 9 9 7 14 1 3v8l-3 6-5 3h-14l-10-4-14-9-12-10-3-2h-7l-1 4 3 9 11 12 10 7 8 4 9 3-1 8v13l2 3 4-2 3-9 2-10 1-1 17-2 11-4 6 11 8 6 9 4 11 1 11-3 8-4 8-6 7-10 3-7-1-6-3-1-5 3-8 8-12 7-3 1h-11l-8-4-4-5v-13l5-9 8-10 13-13 9-5 5-2h12l6 2 9 6 6 9 2 6v21l-4 15-3 10-9 17-9 12-9 10-12 10-12 7-12 4-11 1h-7l-15-4-16-8-12-8-13-11-8-7-9-10-12-16-8-13-7-16-4-16v-12l3-12 6-8 9-7z" fill="#76756E"/>
<path transform="translate(486,780)" d="m0 0 3 4 14 26 10 16 12 16 9 10 7 8 18 18 11 9 15 11 15 9 23 12 23 10 28 9 30 8 22 4 33 4 32 2 7 1 1 3-32 4-31 2h-50l-32-3-34-6-28-7-33-11-11-5-23-11-21-12-14-10-14-11-10-9-8-7-11-11-8-10v-2l12-6 6-5 9-11 9-17 5-16 2-4 1 1 2-12z" fill="#76756E"/>
<path transform="translate(508,1245)" d="m0 0 14 8 17 9 25 10 24 8 28 7 20 4 29 4 28 2h49l28-2 31-4 24-5 23-6 20-7 11-5h2l-1 5-8 17-11 16-9 10-7 8-13 11-15 10-15 8-22 8-8 2-7-1v-2l-4-2-18-14-19-12-12-7-17-8-14-5-16-4-12-2h-29l-17 4-16 8-13 10-6 9-5-2-16-10-13-12-11-13-8-13-6-14-4-16z" fill="#76756E"/>
<path transform="translate(846,1077)" d="m0 0h5l2 19v50l-4 4-22 6-42 7-31 2h-29l-40-2-17-3-2-1v-70l2-4 38 3h52l37-2 29-4z" fill="#CAD1CC"/>
<path transform="translate(597,385)" d="m0 0 12 4-4 3-19 9-19 11-18 13-15 13-16 16-9 11-10 13-11 18-9 16-9 19-10 31-6 28-4 28-1 32h-3l-11-10-14-8-13-5-10-2-15-1-1-5 1-6 2-2 6-26 9-27 11-24 8-14 12-17 8-11 11-13 7-8 9-10 8-7 11-10 8-6 3-3 7-4 5-4 10-7 12-6 13-8 19-9 16-7 13-4z" fill="#75746D"/>
<path transform="translate(827,1443)" d="m0 0h8l11 10 8 7 7 7 8 7 18 18v3l-15 5-13 7-12 9-9 9-8 11-7 12-6 15-4 18-7-6-12-13-11-11-7-8-12-12-2-8 1-14 4-13 7-14 8-10 5-6 14-11 14-8 7-3z" fill="#A8A6A2"/>
<path transform="translate(480,1377)" d="m0 0 8 1 13 4 20 1v22l4 19 8 16 8 11 6 7 10 7 5 3 4 1v2l-24 11-17 5-19 3h-15l-25-3-5-5-7-10-4-10-2-9-1-17 3-18 3-10 6-11 11-13 8-6z" fill="#76756E"/>
<path transform="translate(517,970)" d="m0 0h9l10 6 13 13 7 11 4 8 3 11v28l-4 11-7 12-9 9-8 5-11 3h-7l-11-3-10-5-9-8-6-10-3-8-3-16 1-13 6-20 7-13 9-10 10-7z" fill="#77766F"/>
<path transform="translate(758,1385)" d="m0 0h8l14 10 10 8 11 9 13 11 6 5v3l-14 5-13 7-12 9-8 7-8 10-4 6-9 21-3 18-5-5-10-9v-2l-4-2-8-8-8-7-11-11-2-5v-16l3-12 4-12 8-12 12-13 13-9 13-5z" fill="#A8A6A2"/>
<path transform="translate(849,1063)" d="m0 0h12l3 4 2 15 1 26v44l-3 6-8 4-21 6-31 6-26 3-13 1h-53l-21-1-19-2-15-3-5-5-1-3v-17l1-18 1-38 1-15 4-4 2-1 28 2 5 1 15 1h52l20-1 27-3 29-5zm-3 14-22 5-29 4-37 2h-52l-29-2-9-1-2 4v70l6 2 13 2 40 2h29l31-2 37-6 21-5 7-3 3-3v-50l-2-19z" fill="#20221E"/>
<path transform="translate(618,139)" d="m0 0 13 1 12 5 9 6 9 9 6 12 2 9-1 17-5 13-5 8h-2l-2 4-12 9-13 4h-17l-9-3-11-6-8-8-6-9-4-12v-20l3-9 5-10 5-6 11-8 13-5z" fill="#C7C7C4"/>
<path transform="translate(890,1508)" d="m0 0h12l10 10 9 11 10 11 2 5-17 11-12 11-9 11-8 13-8 16-6 16-5 21h-2l-11-14-10-11-9-11-10-12v-13l4-15 5-12 5-9 10-13 11-11 14-9 7-3z" fill="#A8A6A3"/>
<path transform="translate(691,1338)" d="m0 0h7l24 13 16 11 12 9-1 2-16 5-11 7-12 11-9 12-8 16-4 14-2 19-11-7-17-13-14-10-3-2-3-13-1-7v-10l4-18 7-14 10-11 10-7 13-5z" fill="#A8A7A3"/>
<path transform="translate(1266,867)" d="m0 0h12l6 2 9 6 6 9 2 6v21l-4 15-3 10-9 17-9 12-9 10-12 10-12 7-12 4-11 1-4-8-3-10v-11l6-20 1-6-8-9-2-6-3-1 3-2 6 11 8 6 9 4 11 1 11-3 8-4 8-6 7-10 3-7-1-6-3-1-5 3-8 8-12 7-3 1h-11l-8-4-4-5v-13l5-9 8-10 13-13 9-5z" fill="#A7A5A1"/>
<path transform="translate(425,1349)" d="m0 0h12l13 10 13 9-2 4-8 8-9 14-4 8-5 21-1 10v15l3 17 2 10-9-3-15-8-14-10-12-11-6-9-4-10-2-9v-10l3-17 7-14 9-10 7-6 14-7z" fill="#77766F"/>
<path transform="translate(1091 1e3)" d="m0 0h2l4 11 6 11 10 13 10 11 9 7 11 6 17 7 13 3v2l-8 7-12 11-16 12-14 8-5 2h-7l-13-7-3-2v-2l-4-2-13-13-7-11-5-11-4-13v-26l12-9 10-9z" fill="#A8A6A2"/>
<path transform="translate(365,688)" d="m0 0h12l8 3 9 7 7 8 6 12 5 17 3 20v11l-4 17-6 9-8 6-7 2-9-1-8-4-8-7-9-14-5-12-4-16-1-8v-22l4-14 7-10z" fill="#1F211D"/>
<path transform="translate(1122,955)" d="m0 0 5 5 9 10 13 13 17 13 16 9 16 6 9 2 15 2-2 5-9 12-11 13-11 12-4 3h-10l-15-4-16-8-13-10-10-10-10-15-6-15-2-9 8-14 10-17z" fill="#5F5E58"/>
<path transform="translate(692,617)" d="m0 0 9 1 8 4 8 8 6 9 6 18 3 21v13l-2 15-3 10-6 9-5 4-4 2h-12l-8-4-10-10-8-15-4-13-2-14v-24l3-13 6-12 7-6z" fill="#1F211D"/>
<path transform="translate(1046,1033)" d="m0 0h2l2 23 3 12 6 15 7 11 8 10 7 7 16 11-1 3-21 7-20 4-11 1h-10l-10-3-5-5-8-9-5-12-3-15v-28l5-16 6-10 1-1 19-2z" fill="#A7A5A1"/>
<path transform="translate(941,1017)" d="m0 0 11 3 11 4 20 7 16 4-2 6-4 11-3 14v28l3 16 5 13 3 6v2l-9-1-30-10-9-4-17-9-17-11 1-4 8-10 5-10 5-15 2-13 1-12z" fill="#A7A5A1"/>
<path transform="translate(284,937)" d="m0 0 1 3-2 6-1 5v15l3 15 5 13 6 11 6 8 11 10 4 3-15 13-9 11-4 5-10-3-16-8-11-9-11-11-8-13-3-7-2-8v-6l14-17 9-10 14-13 11-8z" fill="#A8A6A2"/>
<path transform="translate(447,943)" d="m0 0 8 1 31 12 12 5-5 5-11 10-7 10-7 12-5 14-2 12v28l-16-8-17-9-7-6-4-11v-26l4-15 8-16 7-9 9-8z" fill="#A8A6A2"/>
<path transform="translate(935,599)" d="m0 0h11l9 6 7 9 5 12 4 15 2 16v14l-3 17-4 10-4 5-8 4h-7l-10-5-7-9-5-10-4-13-2-9-1-10v-16l2-13 4-13 5-7z" fill="#20221E"/>
<path transform="translate(566,1359)" d="m0 0h1l3 14 5 12 6 10 8 10 7 8 11 9 15 11-5 5-14 11-16 11-2 1h-6l-17-9-10-9-6-7-8-16-3-12v-20l3-9 9-8 16-10z" fill="#5F5E58"/>
<path transform="translate(382,925)" d="m0 0h7l18 4 23 7-2 4-7 7-9 15-6 17-3 20 1 26-7-1-29-8-5-8-5-19v-21l3-12 5-13 6-9 4-5z" fill="#A7A5A1"/>
<path transform="translate(334,920)" d="m0 0h28l2 2-9 12-5 12-4 17-1 18 2 17 3 12v5l-16 3h-6l-4-2v-2l-4-2-9-9-7-11-4-7-4-13-1-5v-18l4-12 4-6 6-5 11-4z" fill="#A7A5A1"/>
<path transform="translate(756,817)" d="m0 0h30l17 4 12 5 11 6 12 9 9 8 5 7-2 4-9 6-15 5-6 1h-20l-13-3-11-4-14-8-12-11-7-7-9-13 3-3 10-4z" fill="#76756E"/>
<path transform="translate(890,1623)" d="m0 0 1 2 3 1 7 11 10 13 14 17 9 8 16 11 10 6 1 2-1 20 2 23 2 12-9-3-14-9-11-9-18-18-13-17-11-19-3-9v-18l2-13z" fill="#5F5E58"/>
<path transform="translate(377,641)" d="m0 0h22l11 4 10 6 10 8 9 9 9 13 8 15 7 19 3 14 2 20v22l-3 18-4 12-7 14-5 7h-2l2-4 7-12-3-3-5 1-5 2v2h-2l1-9 2-12v-37l-3-21-6-21-6-15-6-11-9-11-12-12-16-8-11-3h-8l-6 2 4-4z" fill="#A8A6A2"/>
<path transform="translate(448,1442)" d="m0 0 11 3 19 5 12 1h21l11-3 7-3 5 1 12 13 10 7 4 3v3l-5 4-16 7-19 5-14 2h-15l-25-3-5-5-7-10-4-10-2-9z" fill="#5F5E58"/>
<path transform="translate(626,1321)" d="m0 0h27l19 5 1 2-16 8-8 6-8 8-8 14-4 10-3 13-1 8v18l-7-4-14-12-10-13-6-13-2-7v-14l4-9 6-7 11-7 14-5z" fill="#A7A5A1"/>
<path transform="translate(216,1007)" d="m0 0h2l7 16 9 12 9 10 12 9 3 2-3 9-10 19-8 10-1 2 4 3-9-1-10-4-11-6-10-8-8-9-3-7 1-9 8-19 11-19z" fill="#A8A6A2"/>
<path transform="translate(371,648)" d="m0 0h9l13 5 10 6 15 15 9 13 7 15 7 22 3 16 1 10v37l-3 16-5 14-4 5h-2l-1 4-3 6-5 4-5 1h-12l-12-3-10-5-12-9-7-8-4-8-4-12v-4l3-1 5 3 3 3 12 7 3 1h10l10-4 8-2 1-3 11-5 8-2 5-1 2 2 1-3h-2v-2h-2v-2l5-2 1-2v-16l-1-3 1-9-1-13-3-15-6-16-7-17-10-12v-2l-5-2-8-6-10-5-5-5-6-2-7-2z" fill="#5F5E58"/>
<path transform="translate(508,1245)" d="m0 0 14 8 17 9 25 10 8 3 1 11 4 17 6 14 1 5-5 5-7 10-5-2-16-10-13-12-11-13-8-13-6-14-4-16z" fill="#5F5E58"/>
<path transform="translate(1132,847)" d="m0 0h15l8 3 13 9 14 12 9 9 7 14 1 3v8l-3 6-5 3h-14l-10-4-14-9-12-10-3-2h-8l-7-21 1-14-5 2 5-5z" fill="#A7A5A1"/>
<path transform="translate(771,1487)" d="m0 0 4 1 10 10 7 8 13 13 7 8 9 10 3 4-2 8-3 9-4 13-2 10-7-6-12-13-11-11-7-8-12-12-2-8 1-14 4-13z" fill="#76756E"/>
<path transform="translate(429,1573)" d="m0 0 31 3 100 12 15 2 6 3 3 4-1 5-5 5h-10l-119-14-20-3-5-3-2-5 3-6z" fill="#252622"/>
<path transform="translate(1128,1054)" d="m0 0 4 2 11 6 17 7 13 3v2l-8 7-12 11-16 12-14 8-5 2h-7l-13-7-3-2-3-5-8-8v-2l11-6 10-7 12-11 9-11z" fill="#75746D"/>
<path transform="translate(1238,822)" d="m0 0h11l10 5 13 11 7 10v2h-12l-12 3-11 6-10 9-10 11-8 12h-2l-7-16-7-9-4-4 1-5 8-11 9-10 8-7 12-6z" fill="#A7A5A1"/>
<path transform="translate(811,976)" d="m0 0h1v6l-6 10-11 7-13 5-14 3-8 1h-27l-19-3-21-7-11-7-4-3v-2l10-1 54-1 36-3z" fill="#5F5E58"/>
<path transform="translate(708,1425)" d="m0 0 1 3 4 2 10 9 8 7 13 12 7 7 8 7 1 1v5l-5 10-4 12-2 14-5-5-10-9v-2l-4-2-8-8-8-7-11-11-2-5v-16l3-12z" fill="#76746E"/>
<path transform="translate(642,1377)" d="m0 0 5 1 12 8 14 11 15 12 7 5-2 10-4 14-2 19-11-7-17-13-14-10-3-2-3-13-1-7v-10z" fill="#75746D"/>
<path transform="translate(1062,1097)" d="m0 0h6l11 12 13 10 5 3-1 3-21 7-20 4-11 1h-10l-10-3-5-5-8-9-5-12 1-2 1-1 37-4z" fill="#75746D"/>
<path transform="translate(378,1397)" d="m0 0h3l6 4 11 9 14 10 18 11 3 3 2 22 4 16v3l-9-3-15-8-14-10-12-11-6-9-4-10-2-9v-10z" fill="#5F5E58"/>
<path transform="translate(834,1559)" d="m0 0 4 1 9 10 9 11 11 13 11 14-3 9-5 17-2 10h-2l-11-14-10-11-9-11-10-12v-13l4-15z" fill="#76756E"/>
<path transform="translate(665,511)" d="m0 0h18l12 3 10 6 5 6v7l-5 5-7-1-7-4-4-1h-20l-11 4-10 7-6 5-8 11-5 8-7 1-4-2-2-4 1-8 6-12 11-13 13-10 12-6z" fill="#21231F"/>
<path transform="translate(932,1073)" d="m0 0 8 5 15 8 27 11 9 4 4 15 6 13v2l-9-1-30-10-9-4-17-9-17-11 1-4 8-10z" fill="#77766F"/>
<path transform="translate(1122,854)" d="m0 0h2v14l5 15 1 7 2 10 7 9 9 8 9 5 5 3 9 3-1 8v13l1 3-4-2-6-6-1-4-18-1-3 1 2 5 3 4v2l-4-2-12-16-8-13-7-16-4-16v-12l3-12 6-8z" fill="#77766F"/>
<path transform="translate(858,403)" d="m0 0 9 1 6 3 10 7 15 9 16 12 10 9 8 8 4 7-1 4-1 1h-7l-12-5-26-14-23-13-12-8-7-8v-6l5-5z" fill="#CAD1CC"/>
<path transform="translate(370,706)" d="m0 0h6l9 8 5 8 5 13 3 17v9l-3 13-5 8h-7l-8-7-6-9-6-18-1-6v-21l3-9z" fill="#76756F"/>
<path transform="translate(871,969)" d="m0 0h7l9 3 14 10 11 11 8 13 3 8 3 15v10l-4 17-8 16-4 2-5-33-4-15-6-18-8-17-8-12-8-9z" fill="#5F5E58"/>
<path transform="translate(1194,795)" d="m0 0h18l13 7 4 4v2l-12 5-9 6-9 8-11 14-4 7-7-4-15-9-8-4 2-4 8-11 13-13 13-7z" fill="#A7A5A1"/>
<path transform="translate(252,1210)" d="m0 0 4 2 4 5v7l-4 10-7 9-10 7-11 4h-18l-10-4-9-7-6-7-4-10-1-9 3-1 14 10 9 3h8l7-3 5-4 4-5 3-1 3 9 5 1 4-5z" fill="#5F5E58"/>
<path transform="translate(478,1036)" d="m0 0 5 2 7 6 10 6 24 10 12 2 16 1 1 5-6 7-7 6-8 4-8 2h-7l-11-3-10-5-9-8-6-10-3-8-2-12h1z" fill="#5F5E58"/>
<path transform="translate(918,499)" d="m0 0h16l10 3 11 6 11 9 10 12 3 6v5l-4 4h-6l-15-15-14-8-7-2h-11l-12 6-4 4h-6l-4-4-1-2v-9l6-7 10-6z" fill="#21231F"/>
<path transform="translate(664,348)" d="m0 0h29l10 4 2 3v5l-8 5-13 4-16 3-11 1h-30l-8-2-4-2 1-4 8-7 21-7 9-2z" fill="#A6A4A0"/>
<path transform="translate(590,1341)" d="m0 0 5 2 11 11 10 8 11 8 1 7-3 18v18l-7-4-14-12-10-13-6-13-2-7v-14z" fill="#75746D"/>
<path transform="translate(727,362)" d="m0 0h14l36 4 26 5 18 5 20 6 21 8 20 9 21 11 27 18 16 13 11 9 30 30 11 14 13 18 12 20 11 22 1 7-3-4-12-25-11-18-8-11-12-16-12-13-9-9-5-6-8-7-10-8-11-9-16-11-16-10-25-13-29-12-21-7-24-6-14-3-24-4-22-2h-13l-4 2v2h-2v2l-11 7-11 4-19 5-22 3-24 2-24-3-3-1v-2l12 1h28l24-2 21-5 16-6 10-7z" fill="#BDBDB9"/>
<path transform="translate(417 1e3)" d="m0 0 6 1 35 18h3v32l-16-8-17-9-7-6-4-11z" fill="#76756F"/>
<path transform="translate(372,1171)" d="m0 0 58 5 9 2 3 5-1 6-3 2h-21l-38-4-10-2-3-4 1-7z" fill="#252723"/>
<path transform="translate(258,1056)" d="m0 0 15 7 7 3-1 4-8 15-6 14-3 2h-18l-6-1v-2l-3-3 6-7 8-13z" fill="#5F5E58"/>
<path transform="translate(359,989)" d="m0 0 8 1 29 7 6 2 2 16v10l-7-1-29-8-5-8-4-14z" fill="#76756E"/>
<path transform="translate(296,1010)" d="m0 0 4 1 8 8 9 6-5 5-10 9-9 11-4 5-10-3-5-2v-2l-4-2 1-4 14-19 9-11z" fill="#75746D"/>
<path transform="translate(344,981)" d="m0 0h1l2 17 3 12v5l-16 3h-6l-4-2-3-5-9-9-3-4 1-3 13-4 16-3h5z" fill="#75746D"/>
<path transform="translate(627,154)" d="m0 0h10l8 5 6 8 1 3v8l-4 6-5 2h-6l-8-4-6-7-2-7v-10l3-3z" fill="#CBD2CD"/>
<path transform="translate(143,1198)" d="m0 0 10 3 17 4 1 4-2 3-1 6v19l-5-1-11-7-6-7-3-10z" fill="#5F5E58"/>
<path transform="translate(594,383)" d="m0 0h5l8 3 4 2-2 2-10-4-12 2-13 5-23 10-17 9-20 12-10 7-5 4-5 3-7 6-11 9-8 8-8 7-7 8-9 11-11 14-8 12-9 14-8 15-10 24-6 19-7 30h-1v-8l4-19 8-25 5-11 5-12 12-22 10-14 12-16 11-13 9-10 15-15 11-9 13-10 24-16 22-12 16-8 17-7 11-4z" fill="#A4A29E"/>
<path transform="translate(1145,1070)" d="m0 0h8l11 3 3 3-10 10-8 6-10 8-6 2h-7l1-9 3-5 3-3 3-5 7-9z" fill="#5F5E58"/>
<path transform="translate(108,1155)" d="m0 0h1l1 12 8 7 11 12 5 6v2l-3 3-3 16-7-6-6-8-4-10-3-14z" fill="#5F5E58"/>
<path transform="translate(575,173)" d="m0 0h1l3 19 5 15 7 9 3 3 5 3 9 5 10 3h15l8-1 2 2-9 4-5 1h-17l-9-3-11-6-8-8-6-9-4-12v-20z" fill="#A09E9A"/>
<path transform="translate(668,508)" d="m0 0h15l13 4 9 5v2l3 1v2h2l2 6v6l-5 6h-8l-10-5-4-1h-16l-12 5-12 8-8 9-7 12-5 3-7-1-1-2 10-2 6-10 9-11 12-9 9-4 4-1h20l10 4 4 2 5-1 3-3v-7l-4-5-10-6-12-3h-18l-13 4-10 6-4 3-2-1 5-5 15-8z" fill="#CDD1CD"/>
<path transform="translate(722,637)" d="m0 0h2l5 12 3 11 2 12v23l-3 17-7 14-7 6-8 2-10-1-8-4-6-5-8-11-6-12-3-11-3-17v-17l1-6h1l1 19 4 24 5 13 6 11 9 9 8 4h12l8-5 6-9 3-10 2-15v-13l-3-21-4-13z" fill="#CACCC9"/>
<path transform="translate(893,757)" d="m0 0h8l8 3 7 9 1 3v17l-4 16-8 18-6 11-4 6-3-1 9-15 7-15 5-17 1-5v-13l-4-9-6-4-8-1-26 6-27 5-19 2h-35v-2l42-2 39-6z" fill="#C3C7C3"/>
<path transform="translate(1142,938)" d="m0 0 18 1 3 6 9 10-2 5-7 3-6-2-9-6-9-11v-4z" fill="#5F5E58"/>
<path transform="translate(489,782)" d="m0 0 3 3 12 23 10 16 10 14 11 12 7 8 16 16 8 7 17 13 16 10 22 12 25 11 3 2-8-1-20-9-25-13-18-12-14-11-13-12-17-17-18-22-11-17-13-24-3-5z" fill="#C0C0BC"/>
<path transform="translate(171,1068)" d="m0 0 3 1 6 11 11 13 12 9 12 7 22 7 14 2h13l8-4 4 1 11 16 6 10 5 14 1 4v20h-1l-2-20-3-10-8-16-9-13-3-3-7 3-6 1h-13l-15-3-18-7-14-8-10-8-7-7-7-10-4-6-6 1-10 6h-2v2l-13 10-6 7-2-1 10-11 14-11z" fill="#A2A09B"/>
<path transform="translate(618,139)" d="m0 0 13 1 12 5 9 6 9 9 1 6-14-14-9-5-8-2-13 1-12 2-14 8-6 6h-2l-2 4-4 4 1-6 6-8 5-5 8-6 13-5z" fill="#C3C8C3"/>
<path transform="translate(909,416)" d="m0 0 5 1 16 11 16 13 11 9 30 30 11 14 13 18 12 20 11 22 1 7-3-4-12-25-11-18-8-11-12-16-12-13-9-9-5-6-8-7-10-8-11-9-16-11-9-6z" fill="#C3C5C1"/>
<path transform="translate(931,599)" d="m0 0 2 1-5 4-5 10-3 12-1 9v16l2 13 4 16 4 10 8 11 10 5h7l8-4 5-8 5-17h1v8l-3 10-6 10-5 4-4 1h-9l-7-4-9-9-7-12-4-11-3-19v-22l3-17 4-10h2v-3l3-3z" fill="#C6C8C4"/>
<path transform="translate(920,496)" d="m0 0h13l15 5 10 6 10 9 9 10 4 8v7l-4 5-2 1h-6l-6-5-4-5-8-7-8-5-8-3v-1h7l12 7 15 15h8l1-8-6-10-9-10-11-8-13-6-5-1h-16l-11 4-8 6-4 4 2-6 3-3h3v-2l10-5z" fill="#C5C8C4"/>
<path transform="translate(659,1069)" d="m0 0h12l1 2-12 1-4 2-1 2-1 15-1 38-1 18v17l3 6 6 2 11 2 19 2 21 1 1 2h-22l-31-4-8-4-3-7v-31l1-12 1-44 6-7z" fill="#C6C7C4"/>
<path transform="translate(629,155)" d="m0 0 9 1 6 4 4 5 1 5-2 2-6-1h-11v2l-4 2-4-4-1-3v-7l5-5z" fill="#FEFEFE"/>
<path transform="translate(544,428)" d="m0 0 2 1-29 29-7 9-5 6-10 15-8 13-9 17-8 19-9 29-6 28h-1v-10l6-25 11-33 11-22 12-20 11-15 9-11 11-12 13-13z" fill="#BDBDB9"/>
<path transform="translate(723,767)" d="m0 0h18l15 2v1h-31l-8 3-6 7-1 3v17l6 20 8 16 8 12 11 12 14 11 2 1-1 3-12-9-10-9-10-12-10-16-7-19-3-13v-12l4-9h2l1-4z" fill="#C5C8C4"/>
<path transform="translate(508,1245)" d="m0 0 14 8 17 9 22 9 1 2-11-3-33-15h-3v9l2 12 8 16 9 13 7 8 11 9 16 12-5-1-14-10-10-9-9-10-10-15-7-16-4-16z" fill="#74736C"/>
<path transform="translate(849,1061)" d="m0 0h11l5 4 2 6 2 31v50l-3 7-8 5-9 1 1-2 13-5 3-6v-44l-1-26-2-15-2-3h-12l-24 5-13 2-7-1v-1l36-6z" fill="#BABAB6"/>
<path transform="translate(491,790)" d="m0 0 3 3 13 24 11 16 8 10 12 14 21 21 11 9 15 11 15 9 23 12 23 10 14 5-3 1-22-8-25-12-20-11-17-12-11-9-12-11-19-19-9-11-12-16-11-19-8-15z" fill="#63625C"/>
<path transform="translate(892,841)" d="m0 0v3l-7 9-16 16-14 9-12 6-14 4-19 2-14-1-20-5-2-2 9 1 14 3h25l18-5 10-4 14-9 14-12 9-10z" fill="#C5C7C3"/>
<path transform="translate(590,1341)" d="m0 0 5 2 11 11 10 8 1 3-5 1-6-1-1 1h-5v-2l-4-1-3-7-4-3 1-7-1-4z" fill="#605F59"/>
<path transform="translate(449,629)" d="m0 0h1l1 22 12 15 9 16 7 16 5 18 3 20v41h-2l-1-37-3-21-5-19-6-15-8-15-10-13-4-5z" fill="#C6C7C4"/>
<path transform="translate(831,984)" d="m0 0 1 3-5 9-6 7-13 8-12 5-19 5-16 2h-36l-20-3-21-6-10-5 3-1 10 4 17 5 18 3h40l21-3 20-6 14-8 8-8z" fill="#91908B"/>
<path transform="translate(449,846)" d="m0 0 2 1-8 5 2 5 23 23 11 9 17 13 15 10 12 7 14 7 15 7 6 3-4 1-9-4-16-8-20-11-15-10-13-10-11-9-15-14-8-8-8-10v-2z" fill="#A19F9B"/>
<path transform="translate(458,468)" d="m0 0v3l-10 11-11 14-8 11-12 18-9 17-10 24-6 19-7 30h-1v-8l4-19 8-25 5-11 5-12 12-22 10-14 12-16 11-13 5-6z" fill="#A19F9B"/>
<path transform="translate(756,817)" d="m0 0h30l17 4 12 5 11 6 12 9 9 8 5 7-2 4-9 6-11 4h-7l3-2 14-5 8-6-2-5-8-8-15-11-17-8-14-4-11-1h-28z" fill="#A19F9B"/>
<path transform="translate(985,1483)" d="m0 0v3l-10 16-9 16-11 25-10 30-5 19-2 8-1 2-2-1 7-28 6-19 4-9 4-11 5-10 4-10 5-9 10-16z" fill="#92908B"/>
<path transform="translate(1059,734)" d="m0 0h1v13l-3 15-8 26-6 16-11 23-10 16-9 12-2 3h-2l2-4 9-13 9-14 13-27 10-30 4-17z" fill="#BAB9B5"/>
<path transform="translate(893,757)" d="m0 0h8l8 3 7 9 1 3v17l-4 16-8 18-6 11-4 6-3-1 9-15 7-15 5-17 1-5v-13l-4-9-6-4-11-2z" fill="#D0D2CF"/>
<path transform="translate(489,782)" d="m0 0 3 3 12 23 10 16 10 14 11 12 7 8 13 13-2 2-19-19-18-22-11-17-13-24-3-5z" fill="#BEBDBA"/>
<path transform="translate(602,1381)" d="m0 0 4 1 3 4 3 6 5 2 4 6 1 9-8-6-8-7-6-8 1-5z" fill="#5F5E58"/>
<path transform="translate(892,1093)" d="m0 0h2l1 2 1 23v65l-1 1-1 13h-1v-74z" fill="#C4C5C2"/>
<path transform="translate(936,596)" d="m0 0h9l8 4v2l4 2 4 4 6 11v5h2l5 19 1 9v21l-2 1-2-27-4-18-5-13-7-10-9-6-10-2z" fill="#DEDFDD"/>
<path transform="translate(651,960)" d="m0 0 35 3h70l-4 2-16 1h-50l-32-3-3-1z" fill="#92908B"/>
<path transform="translate(747,819)" d="m0 0h5v2l-10 3-3 2 1 4 6 8 8 9 12 9 8 5 16 6 17 3v1h-13l-14-4-18-10-12-11-7-7-9-13 3-3z" fill="#A4A29E"/>
<path transform="translate(1149,984)" d="m0 0 4 2 13 10 16 9 16 6 9 2 15 2-2 5-6 8v-3l5-8-17-1-11-4-11-5-10-5-18-13-3-3z" fill="#73726B"/>
<path transform="translate(582,200)" d="m0 0 7 6 6 5v2l4 2 3 1v2l4 2 5 5 2 3-8-1-8-6-5-3-7-8-3-7z" fill="#C7CDC8"/>
<path transform="translate(272,1114)" d="m0 0 4 1 11 16 6 10 5 14 1 4v20h-1l-2-20-3-10-8-16-9-13-3-3-7 3-6 1h-13v-2l17-1z" fill="#9F9D99"/>
<path transform="translate(583,1028)" d="m0 0h1v13l-2 13-5 16-6 11-9 11-9 7-13 5-4 1h-9l3-2 14-3 12-6 10-10 8-13 5-16 3-17z" fill="#9B9994"/>
<path transform="translate(1105,993)" d="m0 0 2 3 5 13 11 17 14 14 14 9 13 6-4 1-16-8-13-10-10-10-10-15-6-15z" fill="#717069"/>
<path transform="translate(668,508)" d="m0 0h15l13 4 9 5-3 2-9-5-10-2h-18l-13 4-10 6-4 3-2-1 5-5 15-8z" fill="#BABCB8"/>
<path transform="translate(972,677)" d="m0 0h1v8l-3 10-6 10-5 4-4 1h-9l-7-4-9-9 1-3 6 7 10 5h7l8-4 5-8z" fill="#D6D8D5"/>
<path transform="translate(992,488)" d="m0 0 5 5 10 13 12 19 12 23 4 9-1 4-15-31-12-19-15-20z" fill="#BCBCB8"/>
<path transform="translate(691,615)" d="m0 0h9l9 4v2h3l9 11 1 5-5-5-7-8-6-4-7-2-9 1-9 6-5 8-3 9h-2l1-8 3-5 1-2h2v-3l7-6z" fill="#D7DAD7"/>
<path transform="translate(659,1069)" d="m0 0h12l1 2-12 1-4 2-1 2-1 15-1 38h-1l-1-8v-44l6-7z" fill="#ADACA9"/>
<path transform="translate(666,650)" d="m0 0h1l1 19 4 24 5 13 5 10-2 2-7-12-4-11-4-22v-17z" fill="#C6C9C5"/>
<path transform="translate(476,516)" d="m0 0h2l-2 6-8 21-8 27-5 24h-1v-10l6-25 11-33z" fill="#BCBCB8"/>
<path transform="translate(785,1175)" d="m0 0h13l-2 2-31 3-18 1h-20l-7-1v-1l45-2z" fill="#C5C8C4"/>
<path transform="translate(927,1567)" d="m0 0 2 1-2 12-1 15h-1l-1-6v-15l-4 2-11 14-9 15-6 13-1-4 8-16 11-16 9-10z" fill="#9F9D99"/>
<path transform="translate(573,1256)" d="m0 0 29 9 30 7 6 1-3 2-14-2-16-4-29-9-3-1z" fill="#C3C5C1"/>
<path transform="translate(1e3 865)" d="m0 0v3l-7 8-12 12-11 9-17 12-8 4 2-4 17-11 10-8 10-9h2v-2h2l1-3h2v-2h2v-2h2l2-4z" fill="#BBBAB6"/>
<path transform="translate(259,1058)" d="m0 0 5 1 16 7-1 4-8 15-6 14-5 1 4-5 10-21 1-1v-5l-3-2-9-1-4-3z" fill="#74736C"/>
<path transform="translate(849,1061)" d="m0 0h11l5 4 2 6v6l-2 1-3-13-1-1h-12l-24 5-13 2-7-1v-1l36-6z" fill="#C3C5C1"/>
<path transform="translate(479,1052)" d="m0 0 2 2 4 10 9 10 10 6 10 4h13l12-5h3l-7 5-11 3h-7l-11-3-10-5-9-8-6-10-2-4z" fill="#6F6E68"/>
<path transform="translate(573,1184)" d="m0 0h1v17l-1 17-1 38-3-1 1-36z" fill="#64635D"/>
<path transform="translate(515,1276)" d="m0 0h2l8 16 9 13 7 8 11 9 16 12-5-1-14-10-10-9-9-10-10-15-5-11z" fill="#6F6E67"/>
<path transform="translate(722,637)" d="m0 0h2l5 12 3 11 2 12v23h-2l-2-27-4-18-4-11z" fill="#D7D7D5"/>
<path transform="translate(405,545)" d="m0 0 1 2-8 19-6 19-7 30h-1v-8l4-19 8-25 5-11 2-6z" fill="#9A9994"/>
<path transform="translate(866,944)" d="m0 0 4 1-11 4-33 7-13 2h-11v-1l40-7z" fill="#C2C3BF"/>
<path transform="translate(723,767)" d="m0 0h18l15 2v1h-31l-8 3-6 7-2 6-1 9h-1v-13l3-6h2l1-4z" fill="#C7CBC7"/>
<path transform="translate(594,383)" d="m0 0h5l8 3 4 2-2 2-10-4-12 2-13 5-14 6-4-1 2-2 20-8 11-4z" fill="#9C9B96"/>
<path transform="translate(449,629)" d="m0 0h1l1 22 12 15 9 16 2 8h-2l-8-16-7-11-9-11z" fill="#D1D3D0"/>
<path transform="translate(756,817)" d="m0 0h30l17 4 6 2v2l-9-2-8-2-11-1h-28z" fill="#999792"/>
<path transform="translate(831,769)" d="m0 0h10v1l-17 3h-35v-2z" fill="#BEC2BE"/>
<path transform="translate(480,1377)" d="m0 0h5v2l-8 3-8 7-7 8-8 16-4 18h-1v-9l4-14 6-11 11-13 8-6z" fill="#9B9995"/>
<path transform="translate(893,514)" d="m0 0h2l1 9 2 4 2 1h6l7-6 6-3 2 1 1 2-8 4h-2l-2 4-5 2h-5l-5-4-2-4z" fill="#D0D3D0"/>
<path transform="translate(658,1172)" d="m0 0 26 3 7 1 21 1 1 2h-22l-31-4-2-1z" fill="#BABDB8"/>
<path transform="translate(647,541)" d="m0 0 3 1-5 5-8 9-7 12-5 3-7-1-1-2 10-2 6-10 9-11z" fill="#C8CAC6"/>
<path transform="translate(576,1176)" d="m0 0h1v13l-2 28-1 23h-1v-39l2-24z" fill="#C2C1BE"/>
<path transform="translate(699,1340)" d="m0 0 5 1 18 10 16 11 12 9-1 2h-5v-4l-24-16-16-9-5-3z" fill="#C3C5C1"/>
<path transform="translate(969,627)" d="m0 0 2 3 3 13 1 9v21l-2 1-2-27-3-17z" fill="#C6C9C5"/>
<path transform="translate(506,468)" d="m0 0 2 1-8 11-7 11-12 21-2 4h-2l2-6 13-23 12-17z" fill="#BBBAB7"/>
<path transform="translate(417,1351)" d="m0 0h5l-3 2-9 4-8 5-10 9-8 14-3 10h-1v-7l7-14 9-10 7-6z" fill="#9E9C98"/>
<path transform="translate(956,451)" d="m0 0 4 2 27 27 5 6-1 3-15-16-8-8-5-6-7-6z" fill="#C7CAC6"/>
<path transform="translate(410,626)" d="m0 0 6 1 16 8 13 10 2 2 1-17h1v20h-3l-11-10-14-8-11-5z" fill="#A2A09C"/>
<path transform="translate(522,837)" d="m0 0 5 4 7 8 9 10 12 12-2 2-19-19-9-11-3-3z" fill="#BFBFBB"/>
<path transform="translate(1038,809)" d="m0 0 1 4-11 21-14 20-3 4h-2l2-4 9-13 9-14z" fill="#C0C1BD"/>
<path transform="translate(241,1091)" d="m0 0 4 2 2 4 10 2 1 2h-14l-6-1v-2l-3-3 4-3z" fill="#73726B"/>
<path transform="translate(498,981)" d="m0 0 2 1-9 11-8 16-5 19-2 4v-8l6-20 7-13z" fill="#9C9A95"/>
<path transform="translate(570,1378)" d="m0 0 3 3 8 14 8 10 7 8 11 9 5 5-5-2-13-11-11-12-9-14-4-8z" fill="#6F6E67"/>
<path transform="translate(554,872)" d="m0 0 4 2 8 7 17 13 5 4-1 2-13-9-11-9-9-8z" fill="#C2C1BE"/>
<path transform="translate(171,1068)" d="m0 0 3 1 3 6-1 2-4-5-6 1-10 6h-2v2l-13 10-6 7-2-1 10-11 14-11z" fill="#A2A19C"/>
<path transform="translate(681,385)" d="m0 0h5l-3 4-22 3h-12l1-3 24-2z" fill="#BCBDB9"/>
<path transform="translate(694,1073)" d="m0 0h20l30 1-1 2h-35l-2-1-12-1z" fill="#BDBDB9"/>
<path transform="translate(773,1538)" d="m0 0 7 6 9 9 7 8 10 10v2h2l5 6-1 2-9-9-7-8-13-13-7-8-3-3z" fill="#A3A19D"/>
<path transform="translate(109,1169)" d="m0 0h1l2 15 4 11 6 10 4 1 2-4v11l-7-6-6-8-4-10-2-8z" fill="#706F68"/>
<path transform="translate(385,768)" d="m0 0 4 2 2 5-2 5 1 2-5-1-4-4 1-6z" fill="#5F5E58"/>
<path transform="translate(1149,984)" d="m0 0 4 2 13 10 16 9 4 2v2l-6-2-10-5-18-13-3-3z" fill="#77766F"/>
<path transform="translate(703,518)" d="m0 0 5 2v2h2l2 6v6l-5 6h-8l-7-4v-2l5 1 4 2 5-1 3-3v-7l-4-5-2-1z" fill="#D1D3D0"/>
<path transform="translate(567,1082)" d="m0 0h2l-2 4-8 9-10 6-13 4h-9l3-2 14-3 12-6 10-10z" fill="#999893"/>
<path transform="translate(378,674)" d="m0 0 7 1 2 8h-4l-9-2-1-3 5-2z" fill="#5F5E58"/>
<path transform="translate(611,153)" d="m0 0h6l-2 7-3 2-3-1-4 2-2-3 5-6z" fill="#CBD2CD"/>
<path transform="translate(826,1592)" d="m0 0 3 3 8 10 9 11 11 13v3l-7-7-9-11-11-13-4-5z" fill="#9F9D98"/>
<path transform="translate(780,1276)" d="m0 0h7l-4 2-1 1-28 3h-15v-1l13-2 22-2z" fill="#B2B2AE"/>
<path transform="translate(782,1497)" d="m0 0 3 1 7 8 13 13 7 8 6 7-1 2-9-9-9-11-15-15v-2h-2z" fill="#64635D"/>
<path transform="translate(142,1212)" d="m0 0h2l3 10 6 7 12 7h3l2-4v7l-9-2-11-7-6-9-2-5z" fill="#6F6E67"/>
<path transform="translate(935,521)" d="m0 0h7l12 7 10 10-1 4-4-5-8-7-8-5-8-3z" fill="#C4C7C3"/>
<path transform="translate(239,1488)" d="m0 0 2 3 6 11 8 8 15 8-4 1-11-6-9-8-7-12z" fill="#706F68"/>
<path transform="translate(1122,955)" d="m0 0 5 5 9 10 13 13h-3l-10-9-10-11-4-4-1 3-1-2z" fill="#76746E"/>
<path transform="translate(788,1071)" d="m0 0h6l-2 2-12 2h-32v-1z" fill="#BDBEBA"/>
<path transform="translate(920,664)" d="m0 0h1l4 16 4 10 2 4-2 2-7-14-3-8z" fill="#C2C5C1"/>
<path transform="translate(992,488)" d="m0 0 5 5 10 13 7 11-1 3-20-28z" fill="#BEBEBA"/>
<path transform="translate(927,1567)" d="m0 0 2 1-2 12-1 15h-1l-1-6v-15l-6 2 5-5z" fill="#9C9A96"/>
<path transform="translate(127,1106)" d="m0 0 1 2-6 11-6 14-4 13h-1l1-10 7-17 6-11z" fill="#9B9994"/>
<path transform="translate(625,535)" d="m0 0v3l-8 13-2 6 1 7 1 3-4-2-1-2v-7l6-13h2l1-4z" fill="#C6C9C5"/>
<path transform="translate(555,398)" d="m0 0h2v2l-16 8-11 7-6 2 4-5z" fill="#A8A6A2"/>
<path transform="translate(743,1390)" d="m0 0 4 1-13 7-6 6h-2v2h-2l-2 4-6 7-2-1 9-11 10-9z" fill="#C2C5C1"/>
<path transform="translate(604,1267)" d="m0 0 10 1 24 5-3 2-14-2-16-4z" fill="#BFC2BE"/>
<path transform="translate(894,1157)" d="m0 0h2v26l-1 1-1 13h-1v-18z" fill="#BAB9B6"/>
<path transform="translate(289,1139)" d="m0 0h3l6 16 1 4v20h-1l-2-20-3-10z" fill="#9A9893"/>
<path transform="translate(216,1110)" d="m0 0 11 3 15 4 9 1-4 2-12-1-19-7z" fill="#93928D"/>
<path transform="translate(1020,1443)" d="m0 0h2v2l-8 7-19 19 1-4 15-16z" fill="#8F8E88"/>
<path transform="translate(265,950)" d="m0 0 2 1-27 27v-3l12-13z" fill="#B5B4B0"/>
<path transform="translate(892,841)" d="m0 0v3l-7 9-10 10-4-1 9-8 9-11z" fill="#C8CCC8"/>
<path transform="translate(773,861)" d="m0 0 21 7 13 2v1h-13l-14-4-7-4z" fill="#9D9B97"/>
<path transform="translate(525,414)" d="m0 0m-2 1 2 1-4 4-7 4-10 7-5 4h-3v-2z" fill="#A09E9A"/>
<path transform="translate(944,1566)" d="m0 0h1v7l-5 19-2 8-1 2-2-1 7-28z" fill="#95938E"/>
<path transform="translate(473,686)" d="m0 0 2 2 6 17 1 3v11h-1l-5-19-3-10z" fill="#C4C7C3"/>
<path transform="translate(831,984)" d="m0 0 1 3-5 9-6 7-13 8-6 2 3-3 13-8 7-7z" fill="#9F9D99"/>
<path transform="translate(972,677)" d="m0 0h1v8l-3 10-4 7-7 4 1-3 5-5 4-10z" fill="#DADCD9"/>
<path transform="translate(524,920)" d="m0 0 6 2 11 6 17 8-4 1-9-4-16-8-5-3z" fill="#999793"/>
<path transform="translate(893,757)" d="m0 0h8l8 3 7 9v6l-2-1-4-9-6-4-11-2z" fill="#CACDC9"/>
<path transform="translate(706,785)" d="m0 0 3 1 1 14 3 13-3-1-4-15z" fill="#C0C1BD"/>
<path transform="translate(890,758)" d="m0 0 6 1v1l-26 6-6-1v-1z" fill="#C5C8C4"/>
<path transform="translate(920,496)" d="m0 0m-3 1h3v2l-13 5-8 6-4 4 2-6 3-3h3v-2l10-5z" fill="#C5C8C4"/>
<path transform="translate(843,1165)" d="m0 0h5v2l-19 5h-6l1-3 16-3z" fill="#C1C3BF"/>
<path transform="translate(678,986)" d="m0 0h47v1l-42 1 1 3-6-3z" fill="#797872"/>
<path transform="translate(720,768)" d="m0 0 4 1-9 6-4 5-2 6-1 9h-1v-13l3-6h2l1-4z" fill="#CFD1CE"/>
<path transform="translate(756,817)" d="m0 0h24l1 2-28 1z" fill="#A8A6A2"/>
<path transform="translate(700,617)" d="m0 0 7 1 2 1v2h3l9 11 1 5-5-5-7-8-6-4-4-2z" fill="#E3E4E3"/>
<path transform="translate(921,496)" d="m0 0h12l10 3-4 2-5-1-14-1z" fill="#B7B7B4"/>
<path transform="translate(399,796)" d="m0 0m-23 1 10 2 8-1 5-1v2l-7 3h-10l-6-3z" fill="#717069"/>
<path transform="translate(866,944)" d="m0 0 4 1-11 4-19 4v-2l10-3z" fill="#C2C2BE"/>
<path transform="translate(747,819)" d="m0 0h5v2l-10 3-3 2 1 4 2 5h-2l-6-10 10-5z" fill="#A09E9A"/>
<path transform="translate(660,510)" d="m0 0h2v2l-14 6-10 7-2-1 5-5 15-8z" fill="#CACDC9"/>
<path transform="translate(844,1569)" d="m0 0 3 1 9 11 11 13-1 2-11-12-9-11z" fill="#66655E"/>
<path transform="translate(659,1069)" d="m0 0h12l1 2-12 1-4 2-2 4-1 10h-1v-13z" fill="#C9CDC9"/>
<path transform="translate(738,857)" d="m0 0 4 2 12 10 5 3-1 3-12-9-8-7z" fill="#CFD2CF"/>
<path transform="translate(276,1071)" d="m0 0 1 3-13 26-4-1 4-4 10-21z" fill="#6F6E67"/>
<path transform="translate(944,912)" d="m0 0 1 3-21 11-4-1 21-11z" fill="#BDBDBA"/>
<path transform="translate(566,1359)" d="m0 0h1l1 12-2-3-1-4-6 2-12 8-2-1 10-7z" fill="#706F69"/>
<path transform="translate(644,1275)" d="m0 0 14 1 11 2v1h-17l-8-2z" fill="#BEC0BC"/>
<path transform="translate(1138,1041)" d="m0 0 11 7 15 7-4 1-16-8-6-4z" fill="#6F6E68"/>
<path transform="translate(967,897)" d="m0 0 1 3-13 9-8 4 2-4 17-11z" fill="#BCBBB8"/>
<path transform="translate(683,509)" d="m0 0 11 2 11 6-3 2-9-5-10-2z" fill="#BABCB8"/>
<path transform="translate(272,1114)" d="m0 0 3 1-3 3-12 3h-13v-2l17-1z" fill="#A9A7A3"/>
<path transform="translate(296,1010)" d="m0 0v3l-8 10-10 13-2 1 2-5 11-14z" fill="#65645E"/>
<path transform="translate(870,863)" d="m0 0 4 1-8 7-6 4-3-1 4-4z" fill="#C5C8C4"/>
<path transform="translate(916,772)" d="m0 0h1v17l-2 9-2-3 2-20z" fill="#C5C8C4"/>
<path transform="translate(458,468)" d="m0 0v3l-10 11-6 7-2-1 11-13 5-6z" fill="#A19F9A"/>
<path transform="translate(709,1475)" d="m0 0 4 2 16 15 5 6-4-2-8-8-8-7z" fill="#9D9B96"/>
<path transform="translate(908,1050)" d="m0 0h1l3 18 3-1-1 5-4 2-2-15z" fill="#72716A"/>
<path transform="translate(506,815)" d="m0 0 3 1 7 11 6 8-1 3-9-12-6-9z" fill="#BDBCB9"/>
<path transform="translate(658,534)" d="m0 0 5 1-4 3-11 7-2-1 2-4z" fill="#C7C9C6"/>
<path transform="translate(515,1276)" d="m0 0h2l8 16 4 6v2h-2l-8-13-4-9z" fill="#706F69"/>
<path transform="translate(249,1187)" d="m0 0v3l-9 12-7 13-1-2 6-12 8-11z" fill="#A2A19C"/>
<path transform="translate(887,1049)" d="m0 0 3 1 2 23h-2l-3-20z" fill="#BFBFBB"/>
<path transform="translate(544,428)" d="m0 0 2 1-15 15-4 3-2-1 13-13z" fill="#BABAB6"/>
<path transform="translate(866,1152)" d="m0 0h1l-1 7-8 5-9 1 1-2 13-5z" fill="#C4C6C2"/>
<path transform="translate(554,872)" d="m0 0 4 2 8 7 5 5h-3l-11-9-3-3z" fill="#C0C0BD"/>
<path transform="translate(913,795)" d="m0 0h1v7l-5 13-3 1 3-10z" fill="#D1D3D0"/>
<path transform="translate(831,769)" d="m0 0h10v1l-9 2-27-1v-1z" fill="#C6C8C4"/>
<path transform="translate(722,637)" d="m0 0h2l5 12 1 3v7l-2-2-4-13z" fill="#D7D9D6"/>
<path transform="translate(600,1390)" d="m0 0 3 1 7 8 8 7-1 2-13-11-4-5z" fill="#717069"/>
<path transform="translate(594,1012)" d="m0 0 15 5 1 2-9-2-5-2-1 17h-1z" fill="#C0C0BC"/>
<path transform="translate(931,599)" d="m0 0 2 1-5 4-5 10-1 4h-2l1-8 2-4h2v-3l3-3z" fill="#DADCD9"/>
<path transform="translate(922,518)" d="m0 0h11l7 2v1h-20z" fill="#B3B6B1"/>
<path transform="translate(581,204)" d="m0 0 4 4 6 8 7 7h-3l-7-6-7-10z" fill="#76756E"/>
<path transform="translate(681,716)" d="m0 0 7 6 8 7v2l-5-2-6-5-4-5z" fill="#D2D3D0"/>
<path transform="translate(666,650)" d="m0 0h1l1 24-3-1v-17z" fill="#C7C9C6"/>
<path transform="translate(603,392)" d="m0 0 4 1-20 10h-2l1-3z" fill="#BBBAB7"/>
<path transform="translate(589,1407)" d="m0 0 7 6 11 9 5 5-5-2-13-11-5-5z" fill="#71706A"/>
<path transform="translate(843,861)" d="m0 0m-2 1h2v3l-13 5h-7l3-2 14-5z" fill="#999792"/>
<path transform="translate(539,857)" d="m0 0 4 2 12 12-2 2-14-14z" fill="#BDBEBA"/>
<path transform="translate(731,691)" d="m0 0 2 4-1 13-2 7-2-4 2-10z" fill="#C8CAC6"/>
<path transform="translate(650,389)" d="m0 0h15l3 2-7 1h-12z" fill="#B9B8B5"/>
<path transform="translate(790,1464)" d="m0 0 2 1-11 11-7 10-1-2 8-11 6-7z" fill="#BFC0BC"/>
<path transform="translate(890,1073)" d="m0 0h2l1 2 1 9v9h-2z" fill="#B1B0AD"/>
<path transform="translate(405,545)" d="m0 0 1 2-8 19-3 2 3-10 5-12z" fill="#979691"/>
<path transform="translate(909,416)" d="m0 0 5 1 10 7-1 2-5-2-9-6z" fill="#C5C7C4"/>
<path transform="translate(576,1176)" d="m0 0h1v13l-1 8-2 1v-10l1-11z" fill="#BBBAB7"/>
<path transform="translate(673,699)" d="m0 0 2 3 7 14-2 2-7-12z" fill="#C4C6C2"/>
<path transform="translate(594,383)" d="m0 0h5l8 3 4 2-2 2-10-4h-7z" fill="#9E9C97"/>
<path transform="translate(1155,1086)" d="m0 0m-1 1 1 3-14 11v-3l11-10z" fill="#717069"/>
<path transform="translate(774,882)" d="m0 0 9 1 14 3-3 2-11-2-9-3z" fill="#C2C4C0"/>
<path transform="translate(1059,734)" d="m0 0h1v13l-3 15h-1v-9z" fill="#B5B5B1"/>
<path transform="translate(691,615)" d="m0 0h9l3 2-6 1-9 1-3 1-2-2z" fill="#CACDC9"/>
<path transform="translate(589,384)" d="m0 0 4 1-2 2-15 5-3-1 3-2z" fill="#979691"/>
<path transform="translate(952,1547)" d="m0 0 1 2-7 20h-1l1-9 5-12z" fill="#9B9995"/>
<path transform="translate(773,1538)" d="m0 0 7 6 9 9 1 4-7-6-7-8-3-3z" fill="#9F9D98"/>
<path transform="translate(550,1462)" d="m0 0 5 2 7 4 4 1v2l-7 3-3-1 4-1-2-4-8-5z" fill="#716F69"/>
<path transform="translate(734,1361)" d="m0 0 4 1 12 9-1 2h-5v-4l-10-7z" fill="#BFC0BC"/>
<path transform="translate(844,969)" d="m0 0h7l10 11-1 2-8-8v-2l-10-1z" fill="#989691"/>
<path transform="translate(1e3 865)" d="m0 0v3l-7 8-7 6v-3h2l1-3h2v-2h2v-2h2l2-4z" fill="#C2C1BE"/>
<path transform="translate(785,1175)" d="m0 0h13l-2 2-15 1-3-2z" fill="#BABAB7"/>
<path transform="translate(647,541)" d="m0 0 3 1-5 5-8 7v-3l5-6z" fill="#D6D8D5"/>
<path transform="translate(953,529)" d="m0 0 4 2 7 7-1 4-4-5-6-5z" fill="#D4D6D3"/>
<path transform="translate(610,388)" d="m0 0 12 1 4 2-1 1h-7l-8-2z" fill="#C3C4C1"/>
<path transform="translate(803,1519)" d="m0 0h2l7 8 6 7-1 2-9-9-5-6z" fill="#62615B"/>
<path transform="translate(454,1469)" d="m0 0 12 15 2 2-5-1-7-10-2-3z" fill="#6F6E67"/>
<path transform="translate(1102,1428)" d="m0 0h7v2l-6 3h-5l1-4z" fill="#5F5E58"/>
<path transform="translate(809,1172)" d="m0 0h9l-2 2-12 2h-5l1-2z" fill="#C5C8C4"/>
<path transform="translate(498,981)" d="m0 0 2 1-9 11-3 3v-3l7-9z" fill="#96948F"/>
<path transform="translate(651,960)" d="m0 0 18 2v2l-15-1-3-1z" fill="#918F8A"/>
<path transform="translate(631,921)" d="m0 0 18 7v1l-8-1-12-5z" fill="#BEBDBA"/>
<path transform="translate(1014,518)" d="m0 0 4 5 6 11v2h-2l-8-14z" fill="#B4B3AF"/>
<path transform="translate(508,1220)" d="m0 0 7 6 8 7 3 3-5-2-10-8-3-3z" fill="#A2A09C"/>
<path transform="translate(818,954)" d="m0 0h4v2l-9 2h-11v-1z" fill="#C3C4C1"/>
<path transform="translate(531,851)" d="m0 0 3 1 7 8 7 7h-3l-14-14z" fill="#64635D"/>
<path transform="translate(449,629)" d="m0 0h1l1 22 2 4h-3l-2-5z" fill="#C6C8C4"/>
<path transform="translate(682,531)" d="m0 0 9 1 2 2-4 1-4-1-13-1v-1z" fill="#C6C9C5"/>
<path transform="translate(780,1276)" d="m0 0h7l-4 2-1 1-16 1v-1z" fill="#AFAFAB"/>
<path transform="translate(485,499)" d="m0 0 1 4-7 13h-2l2-6z" fill="#B9B9B5"/>
<path transform="translate(870,1517)" d="m0 0 2 1-9 7h-3l5-5z" fill="#B2B1AD"/>
<path transform="translate(703,518)" d="m0 0 5 2v2h2l2 6v5h-2l-1-7-4-5-2-1z" fill="#E7E8E7"/>
<path transform="translate(484,735)" d="m0 0 3 1v13l-2 1z" fill="#C4C6C2"/>
<path transform="translate(666,674)" d="m0 0 3 1 1 11-2 4-2-11z" fill="#BEC0BC"/>
<path transform="translate(936,596)" d="m0 0h9l6 3-3 2-5-2-7-1z" fill="#DADDDA"/>
<path transform="translate(635,553)" d="m0 0h3l-2 5-3 5-4 1 4-8z" fill="#CDCFCC"/>
<path transform="translate(560,416)" d="m0 0 3 1-15 11v-3z" fill="#BCBBB7"/>
<path transform="translate(623,1271)" d="m0 0 9 1 6 1-3 2-14-2z" fill="#C4C7C2"/>
<path transform="translate(127,1202)" d="m0 0h1v11l-7-6-1-2 6 1z" fill="#7A7973"/>
<path transform="translate(796,1070)" d="m0 0h11v2l-15 1z" fill="#B1B2AD"/>
<path transform="translate(760,875)" d="m0 0 6 1 9 4-3 2-12-6z" fill="#C1C3BF"/>
<path transform="translate(711,813)" d="m0 0 3 1 3 10-2 2-4-10z" fill="#C4C6C2"/>
<path transform="translate(890,758)" d="m0 0 6 1v1l-12 3h-3l1-3z" fill="#C0C1BE"/>
<path transform="translate(941,500)" d="m0 0 7 1 5 3-1 3-11-6z" fill="#C2C4C1"/>
<path transform="translate(596,1367)" d="m0 0 3 1-1 7h-3l-1-6z" fill="#5F5E58"/>
<path transform="translate(1122,955)" d="m0 0 5 5 5 7-4-2-4-5-2-1-1 3-1-2z" fill="#73726B"/>
<path transform="translate(710,776)" d="m0 0h2l-3 10-1 9h-1v-13z" fill="#DFE1DF"/>
<path transform="translate(625,535)" d="m0 0v3l-7 11-1-4 1-2h2l1-4z" fill="#D4D7D4"/>
<path transform="translate(537,407)" d="m0 0m-2 1 2 1-4 4-7 4-2-1 6-5z" fill="#A4A29E"/>
<path transform="translate(907,815)" d="m0 0 1 2-5 10-3-1 5-10z" fill="#C3C6C2"/>
<path transform="translate(908,762)" d="m0 0 4 2 4 5v6l-2-1-4-9z" fill="#E3E4E2"/>
<path transform="translate(452,655)" d="m0 0 4 2 5 7v2l-3-1-6-8z" fill="#D7D9D6"/>
<path transform="translate(949,600)" d="m0 0h4v2l4 2 3 4-1 3-6-7z" fill="#E2E5E3"/>
<path transform="translate(903,503)" d="m0 0 3 1-7 6-4 4 2-6 3-3h3z" fill="#DBDCDA"/>
<path transform="translate(886,1034)" d="m0 0h1l2 9v6h-2l-2-11z" fill="#ADADA9"/>
<path transform="translate(729,846)" d="m0 0 5 4 5 7h-3l-7-9z" fill="#C7CCC7"/>
<path transform="translate(780,817)" d="m0 0 12 1v2h-11z" fill="#94928E"/>
<path transform="translate(846,767)" d="m0 0 4 1-7 3h-7l2-3z" fill="#B7B9B5"/>
<path transform="translate(972,677)" d="m0 0h1v8l-2 8-2-3z" fill="#CFD2CE"/>
<path transform="translate(421,514)" d="m0 0h2l-2 5-5 8h-2l2-5z" fill="#9B9995"/>
<path transform="translate(985,1483)" d="m0 0v3l-7 11-2-1 7-11z" fill="#A4A29E"/>
<path transform="translate(289,1139)" d="m0 0h3l4 10v2h-2z" fill="#93928D"/>
<path transform="translate(830,884)" d="m0 0 4 1-2 2-3 1h-7v-2z" fill="#C3C5C1"/>
<path transform="translate(756,817)" d="m0 0h8l-1 3h-10z" fill="#989692"/>
<path transform="translate(964,702)" d="m0 0v3l-5 4h-4l-1-3 8-2z" fill="#C8C9C6"/>
<path transform="translate(919,616)" d="m0 0 2 2-1 8-2 4h-1l1-9z" fill="#C7CAC6"/>
<path transform="translate(1038,570)" d="m0 0 3 1 3 8v5l-2-3z" fill="#B7B6B3"/>
<path transform="translate(159,1074)" d="m0 0v3l-5 2v2l-4 3-2-1 5-5z" fill="#A2A09C"/>
<path transform="translate(479,704)" d="m0 0 2 1 1 3v11h-1l-2-9z" fill="#C2C4C0"/>
<path transform="translate(694,512)" d="m0 0 6 2 5 3-3 2-8-5z" fill="#CED1CD"/>
</svg>
